<svg id="Calque_1" data-name="Calque 1" xmlns="http://www.w3.org/2000/svg" viewBox="0 0 149.04453 30.57419"><defs><style>.cls-1{fill:#014d98;}.cls-2{fill:#79c6c0;}.cls-3{fill:#ffd500;}.cls-4{fill:#db9506;}</style></defs><title>logo-sc-menu</title><path class="cls-1" d="M49.036,29.00331l1.60418-1.92313a5.65324,5.65324,0,0,0,3.6856,1.50023c1.11041,0,1.78138-.4418,1.78138-1.16475v-.03544c0-.6875-.4229-1.03952-2.48542-1.56874-2.48778-.63317-4.092-1.32067-4.092-3.773V22.003c0-2.23972,1.79791-3.721,4.32113-3.721a7.13693,7.13693,0,0,1,4.58337,1.5711l-1.41045,2.04362A5.81,5.81,0,0,0,53.81548,20.68c-1.04189,0-1.58764.47724-1.58764,1.07733v.03544c0,.81036.52921,1.075,2.66261,1.62072,2.50432.65207,3.9124,1.5522,3.9124,3.7045v.03307c0,2.45235-1.86642,3.82736-4.529,3.82736a7.85482,7.85482,0,0,1-5.23781-1.9751" transform="translate(-0.47773 -9.59645)"/><path class="cls-1" d="M65.26,17.48864l-2.398-1.76248,2.31059-1.00409L67.306,17.48864Zm-3.73757.971h9.3085v2.41454H64.22045v2.50432h5.819v2.41691h-5.819v2.59173h6.70023v2.41454H61.52241Z" transform="translate(-0.47773 -9.59645)"/><polygon class="cls-1" points="73.213 8.863 76.141 8.863 79.384 14.082 82.628 8.863 85.555 8.863 85.555 21.205 82.857 21.205 82.857 13.149 79.384 18.42 79.313 18.42 75.876 13.201 75.876 21.205 73.213 21.205 73.213 8.863"/><path class="cls-1" d="M93.08981,17.48864l-2.398-1.76248,2.31059-1.00409,2.13339,2.76657Zm-3.73757.971h9.3085v2.41454H92.05028v2.50432h5.819v2.41691h-5.819v2.59173h6.70023v2.41454H89.35224Z" transform="translate(-0.47773 -9.59645)"/><path class="cls-1" d="M106.6181,24.66611v-.03544a6.27324,6.27324,0,0,1,6.43563-6.38365,6.3744,6.3744,0,0,1,4.86688,1.90423l-1.727,1.994a4.55518,4.55518,0,0,0-3.15638-1.39391,3.65583,3.65583,0,0,0-3.57928,3.84389v.03544A3.66625,3.66625,0,0,0,113.03719,28.51a4.45764,4.45764,0,0,0,3.2438-1.44589l1.727,1.74594a6.31151,6.31151,0,0,1-5.06062,2.20427,6.23079,6.23079,0,0,1-6.32931-6.34821" transform="translate(-0.47773 -9.59645)"/><rect class="cls-1" x="120.17967" y="8.8639" width="2.71458" height="12.34204"/><polygon class="cls-1" points="129.207 11.367 125.45 11.367 125.45 8.863 135.678 8.863 135.678 11.367 131.924 11.367 131.924 21.205 129.207 21.205 129.207 11.367"/><polygon class="cls-1" points="145.961 8.862 142.963 13.819 140.017 8.862 136.844 8.862 141.588 16.337 141.588 21.204 144.303 21.204 144.303 16.285 149.045 8.862 145.961 8.862"/><polygon class="cls-2" points="33.411 5.683 40.744 13.014 26.078 13.014 33.411 5.683"/><polygon class="cls-2" points="33.411 25.137 40.744 17.806 26.078 17.806 33.411 25.137"/><polygon class="cls-2" points="0 13.015 14.664 13.015 7.331 5.684 0 13.015"/><polygon class="cls-2" points="0 17.806 7.331 25.137 14.664 17.806 0 17.806"/><polygon class="cls-1" points="13.06 30.574 27.724 30.574 20.391 23.243 13.06 30.574"/><polygon class="cls-1" points="13.06 0 20.391 7.331 27.724 0 13.06 0"/><polygon class="cls-3" points="25.041 15.388 20.391 20.038 20.391 10.739 25.041 15.388"/><polygon class="cls-4" points="15.744 15.388 20.393 20.038 20.393 10.739 15.744 15.388"/></svg>